<?xml version="1.0" encoding="utf-8"?>
<!-- Generator: Adobe Illustrator 27.2.0, SVG Export Plug-In . SVG Version: 6.00 Build 0)  -->
<svg version="1.1" id="Capa_1" xmlns="http://www.w3.org/2000/svg" xmlns:xlink="http://www.w3.org/1999/xlink" x="0px" y="0px"
	 viewBox="0 0 800 261" style="enable-background:new 0 0 800 261;" xml:space="preserve">
<style type="text/css">
	.st0{fill:#FFE9DC;}
	.st1{fill:#FFE9DC;stroke:#002B48;stroke-width:3.0728;stroke-linecap:round;stroke-linejoin:round;stroke-miterlimit:10;}
	.st2{fill:#FFE9DC;stroke:#002B48;stroke-width:3.0728;stroke-linecap:round;stroke-miterlimit:10;}
	.st3{fill:#FFE9DC;stroke:#002B48;stroke-width:2.8275;stroke-linecap:round;stroke-linejoin:round;stroke-miterlimit:10;}
	.st4{fill:none;stroke:#002B48;stroke-width:2.8275;stroke-linecap:round;stroke-miterlimit:10;}
	.st5{fill:#FFE9DC;stroke:#002B48;stroke-width:4.3743;stroke-linecap:round;stroke-miterlimit:10;}
	.st6{fill:#FFFFFF;stroke:#000000;stroke-width:4.3743;stroke-linecap:round;stroke-miterlimit:10;}
	.st7{fill:#002B48;}
	.st8{fill:#FFFFFF;}
	.st9{fill:none;stroke:#002B48;stroke-width:4.3743;stroke-linecap:round;stroke-miterlimit:10;}
</style>
<path class="st0" d="M68.5,17.1l-8.1-2.9c0,0-10.8,5.4-11.5,6.8c-0.7,1.4-2.3,2.5,7.1,5.1S68.5,17.1,68.5,17.1z"/>
<g>
	<path class="st0" d="M201.8,75.1c-0.9,2.1-1.8,3.7-0.8,6c3.6,8.4,11.9,3.2,13.3-0.3c1.4-3.5-0.8-16.7-7.3-17.4
		c-12-1.3-12.8,9.8-12.8,9.8"/>
	<path class="st1" d="M76.2,187.3l6.6-0.9l66.6,59.3H79.6c0,0,3.8-29.2,39.4-9.7L76.2,187.3z"/>
	<g>
		<path class="st2" d="M105.4,187.3l-6.3,0.5l-36.5,41.3c0,0-13.6-24.2-35.1-18.3s27.9,41.2,37.8,34.3
			C76.6,237.2,105.4,187.3,105.4,187.3z"/>
		<path class="st2" d="M23.4,214.5c0,0,17.4-0.5,30.7,20.4"/>
	</g>
	<polygon class="st3" points="159.3,194.4 45.5,163.4 65.1,14.2 176.2,42.6 	"/>
	<polyline class="st3" points="170.6,48.1 153,193.2 145.9,197.4 163.7,61.9 	"/>
	<path class="st4" d="M65.1,14.2c0,0-13.1-1-16.8,9.8"/>
	<path class="st3" d="M52.1,25c0,0,7.4-6.4,12.2-5.3l106.4,28.3l-8.3,5.2"/>
	<g>
		<path class="st2" d="M40.5,80.2c-2.6,0.6-25.9,6-32.5,19.7c-2.5,5.1-2.4,10.8,0.4,16.4l10,20.6l9-4.4l-10-20.6
			c-1.4-2.9-1.5-5.3-0.4-7.7c3.8-7.9,20.2-13.1,25.7-14.3"/>
	</g>
	<g>
		<path class="st2" d="M24.3,131.2c2.3-2.7,3.1-5.7,1.8-7.8c-1.9-2.9-7.4-2.7-12.3,0.5s-7.4,8.1-5.5,11c1.1,1.8,3.6,2.4,6.4,1.9"/>
		<path class="st2" d="M13.1,134.1c-4,3.8-3.8,10.9-1,15.2c4.9,8,10.6,9.3,19.3,2c-0.7-13,10.3-14.1,6.4-20
			c-2.9-4.5-10-6.9-14.8-3.2"/>
		<path class="st2" d="M19.8,147.4c0,0,4.9,12.6,15.5,2.6"/>
		<path class="st2" d="M26.9,141.4c0,0,0.5,8.2,9,7.8c3.6-0.2,4.7-2.2,5.2-4.4c0.9-4.2-1.1-10.7-5.9-7.4"/>
		<path class="st2" d="M33.1,133.9c0,0-0.9,3.5,2.5,5.9"/>
	</g>
	<g>
		<path class="st2" d="M210.7,92.8c-0.7,2.6-7.9,24.5-21.5,31.3c-15.3,7.7-39.4,0.4-39.4,0.4l4.9-8.7c0,0,22,3.1,30.7-0.9
			c8-3.7,14.3-19.4,15.8-24.8"/>
	</g>
	<path class="st5" d="M201.2,97.4c-5,0.4-8.9,2.6-9.6,6c-1.1,4.8,4.7,10.2,12.8,11.9c8.1,1.8,15.6-0.7,16.6-5.5
		c0.6-2.9-1.2-6-4.6-8.4"/>
	<path class="st5" d="M210.9,109.2c7.9,0.2,12.2-6.1,13.7-13.2c3.2-13.1,5.3-21-10.7-22.4c-22.1,2.4-24.5,3.7-26.7,13.6
		c-1.6,7.4,3.1,17,11.7,18.1"/>
	<path class="st5" d="M200.8,86c0,0-0.7-17.6-10.4-14.7c-6.7,2-5.8,8.3-5,12.2c0.7,3.1,2.8,10.1,8.9,11.2"/>
	<path class="st6" d="M208.5,88.1c0,0,9.4-1.2,10.8,7.2"/>
	<polygon class="st3" points="145,204.2 28.7,173.3 48.3,24 164.6,55 	"/>
	<path class="st7" d="M89.8,73.6l-6.3-1.3c-4.4-0.9-8.8,2-9.7,6.4l-3.8,19c-0.2,0.9,0.4,1.8,1.4,2l5.4,1.1c1.5,0.3,1.9,2.3,0.6,3.1
		l-9.4,6.3c-0.4,0.3-0.6,0.6-0.7,1.1l-2.1,10.3c-0.9,4.4,2,8.8,6.4,9.7l6.3,1.3c4.4,0.9,8.8-2,9.7-6.4l8.6-42.9
		C97.2,78.8,94.3,74.5,89.8,73.6z"/>
	<path class="st7" d="M123.2,80.3l-6.3-1.3c-4.4-0.9-8.8,2-9.7,6.4l-3.8,19c-0.2,0.9,0.4,1.8,1.4,2l5.4,1.1c1.5,0.3,1.9,2.3,0.6,3.1
		l-9.4,6.3c-0.4,0.3-0.6,0.6-0.7,1.1l-2.1,10.3c-0.9,4.4,2,8.8,6.4,9.7l6.3,1.3c4.4,0.9,8.8-2,9.7-6.4l8.6-42.9
		C130.5,85.5,127.6,81.1,123.2,80.3z"/>
	<g>
		<line class="st8" x1="57.7" y1="21.8" x2="84.8" y2="29.5"/>
		<path class="st7" d="M58.1,20.4l26.7,9.1l-27.5-6.4C55.4,22.7,56.2,19.8,58.1,20.4L58.1,20.4z"/>
	</g>
	<g>
		<line class="st8" x1="152.3" y1="173.4" x2="150.8" y2="194.4"/>
		<polygon class="st7" points="152.3,173.4 152.2,194.5 149.3,194.3 152.3,173.4 		"/>
	</g>
	<g>
		<g>
			<path class="st7" d="M228.6,86.7c0,52.8,0,105.4,0,158.2c-9.6,0-18.9,0-28.5,0c0-54.5,0-109.2,0-164.1c0.7-0.1,1.5-0.2,2.2-0.2
				c8.6,0,17.2-0.1,25.8,0c19.3,0.2,33.6,9.6,44.9,24.5c10.8,14.2,17.4,30.5,23,47.2c6.1,18.1,11.3,36.6,17.6,54.6
				c2.7,7.9,6.8,15.5,10.9,22.8c1.8,3.2,5.3,5.4,8,8.1c0.4-0.2,0.7-0.4,1.1-0.7c0-52.1,0-104.1,0-156.4c9.7,0,19,0,28.6,0
				c0,54.6,0,109.2,0,163.9c-31.2,2.2-54.3-2.4-74-35.6c-9.9-16.7-15.5-35.2-21.4-53.5c-4.7-14.7-9.3-29.5-14.9-43.9
				c-2.5-6.5-7-12.3-11.1-18.1C237.9,89.9,233.7,87.5,228.6,86.7z"/>
			<path class="st7" d="M407.9,208.6c2.4,9.3,6.1,17.5,12.8,24.2c12.1,11.9,35.1,11.4,47.9,0.3c8.6-7.4,13.9-17,18.2-27.2
				c0.6-1.3,1.1-2.6,1.6-3.9c8.3,1.5,13.2,10.5,10.4,19.2c-2.6,8.3-8.9,13.4-16.2,17.4c-9.1,4.9-19,6.9-29.2,7.6
				c-13.8,1-27.4,0.2-40.6-4.3c-22.5-7.7-33.9-24.1-36.5-47.2c-1.2-10.7-0.6-21.4,2.8-31.7c5.3-16.2,16.3-27,32.2-32.5
				c20.8-7.2,42-7.6,62.9-0.2c10.4,3.7,19.1,9.8,23.5,20.4c6.3,15,0.4,30.5-14.1,38.3c-11.1,5.9-23.2,8.3-35.3,10.7
				c-12.6,2.5-25.3,5.3-37.9,7.9C409.8,207.8,409,208.2,407.9,208.6z M391.9,209.4c9.1-3.8,17.4-7.4,25.8-10.9
				c11-4.5,22.3-8.4,33-13.5c9.4-4.5,17-11.4,19.7-22c3.7-15-0.4-29.3-17.5-32.1c-15.5-2.5-29.4,0.3-39.2,14
				c-5.5,7.7-7.9,16.7-8.4,26c-0.5,8.8-0.1,17.6-0.1,26.4c-5.1,2.9-10.3,5.8-15.7,8.9C390.7,207.9,391.6,209,391.9,209.4z"/>
			<path class="st7" d="M629.7,245.1c-1.7,0-2.3,0-3,0c-8.6,0-17.2,0-26.2,0c-6.7-22.3-23.8-36.4-40.8-50.9
				c-12.3,14.8-19.4,31.6-21.5,50.6c-9.5,0-18.9,0-28.5,0c2.4-10,7.2-18.8,14.3-26c7-7.2,14.7-13.6,22.2-20.3c3-2.7,6-5.2,9.3-8
				c-21.1-17.6-41.3-35.5-48.8-63.5c9.6,0,18.9,0,28.7,0c3.1,10.5,8.4,20.3,16.1,28.5c7.5,8,15.6,15.5,23.7,23.5
				c13.1-15.5,20.4-32.6,22.5-52c9.6,0,18.8,0,28.8,0c-1.4,3.6-2.4,7.1-3.9,10.4c-5.1,11.5-13.9,20.1-23.3,28
				c-6.5,5.4-13,10.8-19.8,16.4c4.8,4.1,9.2,8,13.6,11.8c11.8,10.4,22.7,21.5,29.9,35.6C625.5,234.1,627.3,239.4,629.7,245.1z"/>
			<path class="st7" d="M737.8,201.1c9.9,2.1,15.1,10.3,12.7,19.8c-2.1,8.3-7.5,14.2-14.7,18.2c-17.2,9.7-35.2,10-52.9,1.9
				c-13.9-6.4-20.5-18.7-22.7-33.3c-0.7-4.8-0.9-9.8-0.9-14.7c-0.1-18.7,0-37.5,0-56.2c0-1.3,0-2.6,0-4.4c-6.8,0-13.3,0-20.1,0
				c0-2.1,0-3.6,0-5.7c5.7,0,11.3-0.2,17,0.1c6.1,0.3,10.5-2.3,14.1-6.9c6-7.5,8.9-16.4,10.6-25.6c0.8-4.4,1.2-8.8,1.8-13.5
				c1.5,0,3.2,0,5.2,0c0,15.2,0,30.3,0,45.8c14.9,0,29.4,0,44.2,0c0,1.9,0,3.5,0,5.6c-14.5,0-29.1,0-43.8,0
				c-0.2,1.2-0.4,2.1-0.4,2.9c0.1,24.4-0.2,48.8,0.4,73.2c0.2,7.1,1.6,14.5,4,21.2c4.7,13.2,19.6,16.1,29.8,6.3
				c6-5.7,9-13.2,11.6-20.8C735.3,210.5,736.5,205.8,737.8,201.1z"/>
		</g>
		<circle class="st7" cx="782" cy="233.4" r="11.7"/>
	</g>
	<path class="st5" d="M220.9,67.9c0,0,1.9-7,7.9-4.5c6,2.4,7.8,12.1,6.3,15.6c-1.4,3.5-6.8,9.4-12.4,2.2S220.9,67.9,220.9,67.9z"/>
	<path class="st5" d="M212.2,67.5c1.1-1.8,3.2-3.6,6.8-2.2c6,2.4,7.8,12.1,6.3,15.6c-1.4,3.5-6.8,9.4-12.4,2.2"/>
	<path class="st0" d="M207,63.4c-6.3-0.7-9.5,2-11.1,4.8c5.9,7,4.4,6.9,4.9,14.3c3.9,2.8,12.6,0.5,13.5-1.7
		C215.7,77.4,213.5,64.1,207,63.4z"/>
	<path class="st9" d="M201.8,75.1c-0.9,2.1-1.8,3.7-0.8,6c3.6,8.4,11.9,3.2,13.3-0.3c1.4-3.5-0.8-16.7-7.3-17.4
		c-12-1.3-12.8,7.8-12.8,7.8"/>
</g>
</svg>
