<?xml version="1.0" encoding="utf-8"?>
<!-- Generator: Adobe Illustrator 27.2.0, SVG Export Plug-In . SVG Version: 6.00 Build 0)  -->
<svg version="1.1" id="Layer_1" xmlns="http://www.w3.org/2000/svg" xmlns:xlink="http://www.w3.org/1999/xlink" x="0px" y="0px"
	 viewBox="0 0 288.1 288.1" style="enable-background:new 0 0 288.1 288.1;" xml:space="preserve">
<style type="text/css">
	.st0{fill:#FD3F6D;}
	.st1{fill:#FFE9DC;}
	.st2{fill:#002B48;}
</style>
<circle class="st0" cx="144.1" cy="144.1" r="140"/>
<g>
	<path class="st1" d="M167.4,241.2c-1.7,0-3.3-0.1-4.9-0.3c-8.7-1.2-16.2-5.9-22.3-14.1c-0.7-0.9-1.9-1.7-3.1-1.9
		c-1.9-0.4-3.9-0.7-5.8-1c-2.3-0.4-4.7-0.7-7-1.2c-13.4-3-23.5-8.5-30.9-16.9c-0.7-0.8-2-1.2-2.9-1.2c-5.2-0.2-9.8-2.2-13.9-5.9
		c-5.4-4.8-9-11.3-11.1-19.9c-0.7-2.9-1.1-5.8-1.6-8.7c-0.2-1.3-0.4-2.7-0.6-4l0-8.4c0.1-0.9,0.3-1.9,0.4-2.9
		c0.3-2.1,0.5-4.3,0.9-6.4c2.4-13.6,7.3-24.3,14.9-32.6c6.2-6.7,12.8-10,20.2-10c0.7,0,1.5,0,2.2,0.1c0.2,0,0.4,0,0.6,0
		c1.3,0,2.3-0.4,3.3-1.4c6.2-6,13.5-10.2,21.9-12.5c2.9-0.8,4-2.2,4.1-4.9c0-0.1,0-0.3,0-0.4c0-0.2,0-0.4,0-0.7
		c-0.1-1.4-0.1-2.8-0.1-4.2c-0.1-3.5-0.2-7.1-0.4-10.7c-0.4-6.8,1.7-12.9,5.9-17.3c4.2-4.4,10.1-6.8,16.8-6.8
		c7.7,0,14.9,2.6,21.3,7.6c13.1,10.2,18,22.9,14.6,37.7c-0.6,2.5-1.5,5-2.4,7.5c-0.4,1.2-0.9,2.4-1.3,3.6l-0.2,0.5l2,0.5
		c1,0.3,2.1,0.5,3.2,0.8c2.2,0.5,4.5,1.1,6.7,1.8c18.9,6.6,28.1,20.8,26.6,40.8c-0.4,5.5-2.5,10.4-6.4,15.2l-0.2,0.3l0.2,0.3
		c0.1,0.1,0.1,0.2,0.2,0.3c0.1,0.2,0.2,0.4,0.4,0.5c4.1,4.8,5.5,10.4,4.3,17.1c-1.3,6.9-4.9,13-11.2,18.4c-0.7,0.6-1.3,1.9-1.2,2.9
		c1,6.9-0.6,13.3-4.9,19.6c-4.2,6.1-10.3,10.8-18.8,14.4C179.9,239.7,173.5,241.2,167.4,241.2C167.4,241.2,167.4,241.2,167.4,241.2z
		"/>
	<path class="st2" d="M154.2,47.4c7.6,0,14.6,2.5,21,7.5c13.1,10.2,17.8,22.4,14.4,37.2c-0.6,2.5-1.5,4.9-2.4,7.5
		c-0.4,1.2-0.9,2.4-1.3,3.6l-0.3,1l1,0.3l0.4,0.1c0.3,0.1,0.7,0.2,1.1,0.3c1.1,0.3,2.1,0.5,3.2,0.8c2.2,0.5,4.5,1.1,6.6,1.8
		c18.7,6.6,27.8,20.5,26.2,40.3c-0.4,5.4-2.5,10.3-6.2,14.9l-0.5,0.6l0.4,0.6c0.1,0.1,0.1,0.2,0.2,0.3c0.1,0.2,0.2,0.4,0.4,0.6
		c4,4.7,5.3,10.2,4.2,16.7c-1.2,6.8-4.8,12.7-11.1,18.1c-0.8,0.7-1.5,2.1-1.4,3.3c1,6.7-0.6,13-4.8,19.2c-4.1,6-10.2,10.6-18.6,14.2
		c-7,3-13.3,4.4-19.3,4.4c-1.6,0-3.3-0.1-4.9-0.3c-8.6-1.2-16-5.8-21.9-13.9c-0.7-1-2.1-1.8-3.4-2.1c-1.9-0.4-3.9-0.7-5.8-1
		c-2.3-0.4-4.7-0.7-7-1.2c-13.3-2.9-23.3-8.4-30.6-16.8c-0.8-0.9-2.2-1.4-3.3-1.4c-5.1-0.2-9.5-2.1-13.6-5.8
		c-5.3-4.8-8.9-11.2-11-19.6c-0.7-2.8-1.1-5.8-1.6-8.7c-0.2-1.3-0.4-2.6-0.6-3.9v-8.4c0.1-1,0.3-1.9,0.4-2.9
		c0.3-2.1,0.5-4.3,0.9-6.4c2.4-13.5,7.3-24.1,14.8-32.3c6.1-6.6,12.6-9.9,19.9-9.9c0.7,0,1.5,0,2.2,0.1c0.2,0,0.4,0,0.6,0
		c1.4,0,2.6-0.5,3.7-1.6c6.1-6,13.4-10.1,21.7-12.4c3.1-0.8,4.4-2.5,4.4-5.4c0-0.1,0-0.3,0-0.4c0-0.2,0.1-0.5,0-0.7
		c-0.1-1.4-0.1-2.8-0.1-4.2c-0.1-3.5-0.2-7.1-0.4-10.7c-0.4-6.6,1.7-12.6,5.8-16.9C141.7,49.8,147.6,47.4,154.2,47.4L154.2,47.4
		 M154.2,46.4C154.2,46.4,154.2,46.4,154.2,46.4c-14.2,0-24,10.4-23.3,24.6c0.3,4.9,0.4,9.9,0.6,14.8c0,0.4-0.1,0.7-0.1,1.1
		c0,2.5-1.1,3.7-3.7,4.4c-8.4,2.3-15.8,6.6-22.1,12.7c-0.9,0.9-1.8,1.3-3,1.3c-0.2,0-0.4,0-0.6,0c-0.8-0.1-1.5-0.1-2.3-0.1
		c-8.4,0-15,4.1-20.6,10.2c-8.5,9.3-12.8,20.6-15,32.8c-0.6,3.1-0.9,6.3-1.3,9.4c0,2.8,0,5.7,0,8.5c0.7,4.2,1.2,8.5,2.2,12.7
		c1.9,7.7,5.2,14.7,11.3,20.1c4,3.6,8.7,5.8,14.2,6c0.9,0,2,0.4,2.6,1.1c8.3,9.5,19.1,14.5,31.1,17.1c4.2,0.9,8.5,1.4,12.8,2.2
		c1,0.2,2.2,0.9,2.8,1.7c5.7,7.7,13.1,13,22.6,14.3c1.7,0.2,3.3,0.3,5,0.3c6.8,0,13.4-1.8,19.7-4.5c7.6-3.2,14.3-7.6,19-14.5
		c4.1-6,6.1-12.6,5-19.9c-0.1-0.7,0.4-1.9,1-2.4c5.8-5,10-11,11.4-18.7c1.2-6.5,0-12.4-4.4-17.5c-0.2-0.2-0.3-0.5-0.5-0.8
		c3.7-4.5,6-9.6,6.5-15.4c1.5-20.1-7.9-34.6-26.9-41.3c-3.2-1.1-6.6-1.8-9.8-2.6c-0.5-0.1-1.1-0.3-1.5-0.4c1.3-3.8,2.8-7.4,3.7-11.2
		c3.7-16-2.2-28.5-14.8-38.2C169.5,49.2,162.3,46.4,154.2,46.4L154.2,46.4z"/>
</g>
<g>
	<path class="st2" d="M62.8,166.1c0-2.8,0-5.7,0-8.5c0.4-3.1,0.8-6.3,1.3-9.4c2.2-12.2,6.5-23.5,15-32.8
		c6.1-6.7,13.4-10.9,22.9-10.1c1.5,0.1,2.5-0.2,3.5-1.2c6.3-6.1,13.7-10.3,22.1-12.7c2.6-0.7,3.7-1.9,3.7-4.4c0-0.4,0.1-0.7,0.1-1.1
		c-0.2-4.9-0.3-9.9-0.6-14.8c-0.8-14.2,9-24.6,23.2-24.6c8.1,0,15.3,2.8,21.6,7.7c12.6,9.8,18.5,22.2,14.8,38.2
		c-0.9,3.8-2.4,7.4-3.7,11.2c0.4,0.1,1,0.3,1.5,0.4c3.3,0.9,6.6,1.5,9.8,2.6c19,6.7,28.4,21.2,26.9,41.3c-0.4,5.8-2.8,10.9-6.5,15.4
		c0.2,0.3,0.3,0.6,0.5,0.8c4.3,5.1,5.6,11,4.4,17.5c-1.4,7.7-5.6,13.7-11.4,18.7c-0.6,0.5-1.1,1.7-1,2.4c1.1,7.4-0.8,13.9-5,19.9
		c-4.7,6.9-11.4,11.3-19,14.5c-7.9,3.3-16.2,5.3-24.7,4.2c-9.5-1.3-16.9-6.6-22.6-14.3c-0.6-0.8-1.8-1.5-2.8-1.7
		c-4.2-0.8-8.6-1.3-12.8-2.2c-12-2.7-22.8-7.6-31.1-17.1c-0.6-0.6-1.7-1-2.6-1.1c-5.5-0.3-10.2-2.4-14.2-6
		c-6-5.4-9.4-12.4-11.3-20.1C64.1,174.7,63.6,170.4,62.8,166.1z M94.5,119.3c-3.9,2-6.7,5-9.1,8.6c-7.8,11.8-10.6,25-9.6,38.9
		c0.4,6.1,1.8,12.1,4.9,17.5c1,1.7,2.2,3.1,3.3,4.7c0.2-1.6,0-2.9-0.2-4.2c-0.1-1.4-0.3-2.8-0.2-4.2c0.1-3.1,2.5-5.6,5.4-5.8
		c3.5-0.3,6.3,1.6,7,4.8c0.2,1,0.3,2,0.4,3c0.6,6.1,2.8,11.5,7.1,16.1c6.5,7,14.9,10.4,24,12.4c2.8,0.6,5.7,1,8.6,1.5
		c1.3-7.6,5.3-13.3,10.8-18c1.5-1.3,1.8-2.4,1.2-4.3c-0.7-2.3-0.8-4.8-1.2-7.3c-5.5,3.8-11.6,5.5-18.1,5.5c-4,0-6.7-2.5-6.7-6.1
		c-0.1-3.9,2.4-6.4,6.5-6.6c0.7,0,1.4,0,2.1-0.1c4.5-0.4,8.5-1.9,11.4-5.5c4-4.9,5.8-10.6,5.6-17c-0.1-2.8,0-5.7,0.8-8.4
		c4.6-15.7,24.3-23.2,38.4-14.7c2.6,1.6,3.7,5,2.5,7.8c-1.2,3-4.4,4.6-7.5,3.7c-2.1-0.6-4.1-1.5-6.3-2.1c-1.3-0.4-2.8-0.7-4.2-0.5
		c-8.9,1.4-13.7,10.3-9.8,18.3c3.1,6.4,7.9,10.3,15.5,10.2c9.2-0.2,17.8-2.3,25.6-7.3c5.9-3.7,9.8-8.7,9.7-16.1
		c-0.1-7.1-1.7-13.5-7-18.5c-5.7-5.5-12.9-7.7-20.4-9.3c-4.1-0.9-7.7-1-9.9,3.3c-0.2,0.3-0.5,0.5-0.8,0.7c-3.7,2.7-9,0.8-10-3.6
		c-0.6-2.5,0.3-4.6,2-6.4c4.7-5.1,8.4-10.8,10.8-17.4c3.4-9.3,2-17.6-4.9-24.8c-5.1-5.3-11-9-18.6-8.9c-5.8,0.1-9.6,3.4-9.9,9.2
		c-0.2,2.6,0.3,5.2,0.5,7.8c1.3,17.2-4.3,32.1-15.2,45.2c-2.2,2.6-4.7,4.9-7.4,7c-2.8,2.3-6.9,1.5-8.9-1.3c-2.1-2.9-1.3-6.4,1.3-9
		c3.2-3.2,6.1-6.7,9.1-10.1c0.3-0.3,0.4-0.8,0.7-1.5c-4.6,2.4-8.3,5.2-11.4,8.7c-4.9,5.4-7.4,11.8-8.1,19c-0.3,3.7-3.3,5.8-6.9,5.5
		c-3.5-0.3-5.8-3.1-5.7-6.7c0.1-1.3,0.1-2.7,0.4-4C92.9,125.8,93.7,122.6,94.5,119.3z M163.1,177.5c-2.4,2.9-4.4,6.3-2.4,10.2
		c3.6,6.7,9.5,11,17,11.6c9.6,0.7,18.3-2.6,25.9-8.5c3.6-2.7,6.2-6.2,7.3-10.7c0.7-3.1,0.6-6.1-2.1-8.3
		C194.3,179.2,179.5,183,163.1,177.5z M198.5,208.2c-15.1,5.7-29.4,6.2-42.4-5.9c-2.3,3.1-4.6,5.8-6.5,8.8c-1.3,2.1-1.4,4.6-0.3,6.8
		c3,6,8,10.1,14.5,10.7c11.6,1,22-2.9,30.3-11.3C196.5,214.9,198.1,212,198.5,208.2z"/>
</g>
</svg>
